<?xml version="1.0" encoding="UTF-8"?>
<svg id="Layer_1" xmlns="http://www.w3.org/2000/svg" xmlns:xlink="http://www.w3.org/1999/xlink" viewBox="0 0 154 59.66">
  <defs>
    <style>
      .cls-1 {
        fill: url(#linear-gradient-8);
      }

      .cls-2 {
        fill: url(#linear-gradient-7);
      }

      .cls-3 {
        fill: url(#linear-gradient-5);
      }

      .cls-4 {
        fill: url(#linear-gradient-6);
      }

      .cls-5 {
        fill: url(#linear-gradient-9);
      }

      .cls-6 {
        fill: url(#linear-gradient-4);
      }

      .cls-7 {
        fill: url(#linear-gradient-3);
      }

      .cls-8 {
        fill: url(#linear-gradient-2);
      }

      .cls-9 {
        fill: url(#linear-gradient);
      }

      .cls-10 {
        fill: url(#linear-gradient-10);
      }

      .cls-11 {
        fill: url(#linear-gradient-11);
      }

      .cls-12 {
        fill: url(#linear-gradient-12);
      }

      .cls-13 {
        fill: url(#linear-gradient-13);
      }

      .cls-14 {
        fill: url(#linear-gradient-19);
      }

      .cls-15 {
        fill: url(#linear-gradient-14);
      }

      .cls-16 {
        fill: url(#linear-gradient-21);
      }

      .cls-17 {
        fill: url(#linear-gradient-20);
      }

      .cls-18 {
        fill: url(#linear-gradient-22);
      }

      .cls-19 {
        fill: url(#linear-gradient-23);
      }

      .cls-20 {
        fill: url(#linear-gradient-28);
      }

      .cls-21 {
        fill: url(#linear-gradient-25);
      }

      .cls-22 {
        fill: url(#linear-gradient-32);
      }

      .cls-23 {
        fill: url(#linear-gradient-31);
      }

      .cls-24 {
        fill: url(#linear-gradient-33);
      }

      .cls-25 {
        fill: url(#linear-gradient-30);
      }

      .cls-26 {
        fill: url(#linear-gradient-15);
      }

      .cls-27 {
        fill: url(#linear-gradient-16);
      }

      .cls-28 {
        fill: url(#linear-gradient-17);
      }

      .cls-29 {
        fill: url(#linear-gradient-18);
      }

      .cls-30 {
        fill: url(#linear-gradient-35);
      }

      .cls-31 {
        fill: url(#linear-gradient-34);
      }

      .cls-32 {
        fill: url(#linear-gradient-36);
      }

      .cls-33 {
        fill: url(#linear-gradient-27);
      }

      .cls-34 {
        fill: url(#linear-gradient-24);
      }

      .cls-35 {
        fill: url(#linear-gradient-26);
      }

      .cls-36 {
        fill: url(#linear-gradient-29);
      }

      .cls-37 {
        fill: url(#linear-gradient-37);
      }
    </style>
    <linearGradient id="linear-gradient" x1="753.52" y1="396.03" x2="541.02" y2="396.03" gradientTransform="translate(-164.8 121.64) scale(.3 -.3)" gradientUnits="userSpaceOnUse">
      <stop offset="0" stop-color="#ff0094"/>
      <stop offset="1" stop-color="blue"/>
    </linearGradient>
    <linearGradient id="linear-gradient-2" x1="753.52" y1="375.67" x2="541.02" y2="375.67" xlink:href="#linear-gradient"/>
    <linearGradient id="linear-gradient-3" x1="753.52" y1="385.87" x2="541.02" y2="385.87" xlink:href="#linear-gradient"/>
    <linearGradient id="linear-gradient-4" x1="753.52" y1="365.2" x2="541.02" y2="365.2" xlink:href="#linear-gradient"/>
    <linearGradient id="linear-gradient-5" x1="753.52" y1="356.82" x2="541.02" y2="356.82" xlink:href="#linear-gradient"/>
    <linearGradient id="linear-gradient-6" x1="753.52" y1="357.71" x2="541.02" y2="357.71" xlink:href="#linear-gradient"/>
    <linearGradient id="linear-gradient-7" x1="753.52" y1="360.84" x2="541.02" y2="360.84" xlink:href="#linear-gradient"/>
    <linearGradient id="linear-gradient-8" x1="753.52" y1="365.47" x2="541.02" y2="365.47" xlink:href="#linear-gradient"/>
    <linearGradient id="linear-gradient-9" x1="753.52" y1="373.97" x2="541.03" y2="373.97" xlink:href="#linear-gradient"/>
    <linearGradient id="linear-gradient-10" x1="753.52" y1="344.35" x2="541.02" y2="344.35" xlink:href="#linear-gradient"/>
    <linearGradient id="linear-gradient-11" x1="753.52" y1="337.98" x2="541.02" y2="337.98" xlink:href="#linear-gradient"/>
    <linearGradient id="linear-gradient-12" x1="753.52" y1="329.78" x2="541.02" y2="329.78" xlink:href="#linear-gradient"/>
    <linearGradient id="linear-gradient-13" x1="753.52" y1="329.38" x2="541.02" y2="329.38" xlink:href="#linear-gradient"/>
    <linearGradient id="linear-gradient-14" x1="753.52" y1="332.26" x2="541.02" y2="332.26" xlink:href="#linear-gradient"/>
    <linearGradient id="linear-gradient-15" x1="753.52" y1="337.8" x2="541.02" y2="337.8" xlink:href="#linear-gradient"/>
    <linearGradient id="linear-gradient-16" x1="753.52" y1="344.92" x2="541.02" y2="344.92" xlink:href="#linear-gradient"/>
    <linearGradient id="linear-gradient-17" x1="753.52" y1="331.58" x2="541.02" y2="331.58" xlink:href="#linear-gradient"/>
    <linearGradient id="linear-gradient-18" x1="753.52" y1="300.84" x2="541.02" y2="300.84" xlink:href="#linear-gradient"/>
    <linearGradient id="linear-gradient-19" x1="753.52" y1="300.84" x2="541.02" y2="300.84" xlink:href="#linear-gradient"/>
    <linearGradient id="linear-gradient-20" x1="753.52" y1="302.73" x2="541.02" y2="302.73" xlink:href="#linear-gradient"/>
    <linearGradient id="linear-gradient-21" x1="753.52" y1="304.11" x2="541.02" y2="304.11" xlink:href="#linear-gradient"/>
    <linearGradient id="linear-gradient-22" x1="753.52" y1="309.02" x2="541.02" y2="309.02" xlink:href="#linear-gradient"/>
    <linearGradient id="linear-gradient-23" x1="753.52" y1="316.29" x2="541.02" y2="316.29" xlink:href="#linear-gradient"/>
    <linearGradient id="linear-gradient-24" x1="753.52" y1="293.31" x2="541.02" y2="293.31" xlink:href="#linear-gradient"/>
    <linearGradient id="linear-gradient-25" x1="753.52" y1="268.03" x2="541.02" y2="268.03" xlink:href="#linear-gradient"/>
    <linearGradient id="linear-gradient-26" x1="753.52" y1="273.47" x2="541.02" y2="273.47" xlink:href="#linear-gradient"/>
    <linearGradient id="linear-gradient-27" x1="753.52" y1="273.03" x2="541.02" y2="273.03" xlink:href="#linear-gradient"/>
    <linearGradient id="linear-gradient-28" x1="753.52" y1="276.26" x2="541.02" y2="276.26" xlink:href="#linear-gradient"/>
    <linearGradient id="linear-gradient-29" x1="753.52" y1="282.44" x2="541.02" y2="282.44" xlink:href="#linear-gradient"/>
    <linearGradient id="linear-gradient-30" x1="753.52" y1="240.87" x2="541.02" y2="240.87" xlink:href="#linear-gradient"/>
    <linearGradient id="linear-gradient-31" x1="753.52" y1="243.29" x2="541.02" y2="243.29" xlink:href="#linear-gradient"/>
    <linearGradient id="linear-gradient-32" x1="753.52" y1="252.02" x2="541.02" y2="252.02" xlink:href="#linear-gradient"/>
    <linearGradient id="linear-gradient-33" x1="753.52" y1="253.2" x2="541.02" y2="253.2" xlink:href="#linear-gradient"/>
    <linearGradient id="linear-gradient-34" x1="753.52" y1="257.46" x2="541.02" y2="257.46" xlink:href="#linear-gradient"/>
    <linearGradient id="linear-gradient-35" x1="753.52" y1="212.35" x2="541.02" y2="212.35" xlink:href="#linear-gradient"/>
    <linearGradient id="linear-gradient-36" x1="753.52" y1="224.64" x2="541.02" y2="224.64" xlink:href="#linear-gradient"/>
    <linearGradient id="linear-gradient-37" x1="753.52" y1="236.43" x2="541.02" y2="236.43" xlink:href="#linear-gradient"/>
  </defs>
  <g>
    <path class="cls-9" d="M21.3,0c-2.74,1.31-5.18,3.12-7.17,5.32.92-.62,2.41-1.13,3.61-1.54,1-1.93,2.42-2.96,3.56-3.78Z"/>
    <path class="cls-8" d="M18.7,5.71c-2.64,1.62-4.99,3.7-6.91,6.13,1.87-.73,3.79-1.34,5.68-2.01-.17-2.08.6-3.21,1.23-4.12Z"/>
    <path class="cls-7" d="M26.83,2.28c-2.08,1.9-3.92,4.24-5.44,6.87,3.47-1.36,5.05-2.09,6.57-2.79-1.24-1.97-1.18-3.14-1.13-4.08Z"/>
    <path class="cls-6" d="M33.17,12.07c-2.16-1.8-2.78-2.92-3.28-3.83-1.19,2.09-2.25,4.59-3.12,7.36,3.39-1.64,5.13-2.73,6.41-3.53Z"/>
    <path class="cls-3" d="M36.66,10.66c-.13,2.17-.24,4.74-.33,7.56l5.39-4.2c-2.86-1.52-4.23-2.67-5.06-3.35Z"/>
    <path class="cls-4" d="M47.29,13.15c-3.44-1.39-4.82-2.08-6.04-2.69.99,2.12,1.86,4.65,2.58,7.43,2.4-2.26,2.91-3.46,3.46-4.74Z"/>
    <path class="cls-2" d="M50.97,11.78q-4.34-1.52-5.73-2.04c1.95,1.94,3.69,4.32,5.1,6.98,1.06-2.31.82-3.77.63-4.94Z"/>
    <path class="cls-1" d="M54.42,15c-.21-2.34-1.21-3.73-2.01-4.85-1.26-.46-2.77-.9-4.68-1.46,2.56,1.69,4.83,3.84,6.69,6.31Z"/>
    <path class="cls-5" d="M7.61,11.07c-.53-2.66.15-4.36.69-5.73-2,2.31-3.56,4.98-4.56,7.89.93-.9,2.63-1.63,3.87-2.16Z"/>
    <path class="cls-10" d="M15.1,13.99c-1.75,2.53-3.13,5.38-4,8.4q.96-.44,6.37-2.77c-1.82-2.6-2.13-4.28-2.37-5.63Z"/>
    <path class="cls-11" d="M24.19,15.7c-1.21,2.71-2.16,5.69-2.77,8.79,4.03-1.85,5.29-2.48,7.55-3.62-2.83-2.36-4.01-4.06-4.79-5.18Z"/>
    <path class="cls-12" d="M31.51,27.07c3.98-2.08,6.03-3.41,7.68-4.47-3.51-2.04-5.34-3.54-6.56-4.54-.49,2.81-.88,5.86-1.12,9.02Z"/>
    <path class="cls-13" d="M40.8,27.2c3.75-2.47,5.6-4.19,6.83-5.33-3.51-1.54-5.03-2.31-7.54-3.71.31,2.81.56,5.88.71,9.04Z"/>
    <path class="cls-15" d="M49.85,26.24c2.73-2.66,3.61-4.49,4.33-5.96-2.27-.98-4.55-1.92-6.82-2.89,1.1,2.73,1.95,5.73,2.49,8.85Z"/>
    <path class="cls-26" d="M57.78,18.15c-1.46-.78-3.3-1.52-5.08-2.24,1.67,2.57,2.98,5.45,3.8,8.49,1.37-2.85,1.31-4.73,1.27-6.25Z"/>
    <path class="cls-27" d="M58.12,15.83l-.04-.06c-.43-.72-1.71-1.33-2.65-1.77,1.97,2.37,3.5,5.08,4.48,8.02-.03-2.87-1.01-4.71-1.79-6.19Z"/>
    <path class="cls-28" d="M3.87,26.13c0,.17,0,.34,0,.51.92-.93,2.41-1.67,4.3-2.61-2.08-3.09-2.39-4.97-2.67-6.63-1.05,2.75-1.63,5.7-1.64,8.73Z"/>
    <path class="cls-29" d="M13.19,26.55c-.83,2.86-1.29,5.87-1.29,8.9,0,.17,0,.34,0,.51,1.84-.99,3.06-1.58,6.69-3.33-3.12-2.75-4.49-4.76-5.4-6.08Z"/>
    <path class="cls-14" d="M31.26,31.85c-3.82-2.41-5.88-4.18-7.24-5.36-.48,2.94-.74,5.98-.75,9.02,0,.17,0,.34,0,.51,4.3-2.17,6.08-3.14,7.98-4.17Z"/>
    <path class="cls-17" d="M36.04,34.97v.51c4.11-2.28,6.6-3.98,8.26-5.09-4.11-2.02-6.45-3.44-8.16-4.48-.06,2.97-.09,6.03-.09,9.07Z"/>
    <path class="cls-16" d="M53.06,29.02c-2.57-1.21-5.19-2.33-7.77-3.52.39,2.94.6,6,.59,9.04,0,.17,0,.34,0,.51,4.02-2.75,5.77-4.56,7.18-6.02Z"/>
    <path class="cls-18" d="M53.23,24.08c.77,2.88,1.19,5.9,1.19,8.93,0,.17,0,.34,0,.51,2.73-2.92,3.67-4.98,4.42-6.64-1.64-1.01-3.75-1.97-5.6-2.81Z"/>
    <path class="cls-19" d="M59.77,30.75c0,.17,0,.34,0,.51,1.42-3.14,1.37-5.25,1.33-6.95-.5-.96-1.88-1.75-2.88-2.33,1.02,2.78,1.57,5.74,1.56,8.77Z"/>
    <path class="cls-34" d="M0,29.17c.06,3.18.69,6.11,1.8,8.7h0c.9-.75,2.53-1.59,3.97-2.32-3.28-2.76-4.6-4.68-5.77-6.38Z"/>
    <path class="cls-21" d="M17.18,36.86c.04,3.17.47,6.05,1.24,8.52,2.08-1.01,4.18-1.97,6.27-2.95-3.89-2.39-5.98-4.22-7.51-5.56Z"/>
    <path class="cls-35" d="M31.19,35.27c.01,3.17.18,6.01.49,8.42,3.86-1.73,5.73-2.71,7.72-3.74-4.04-2-6.45-3.55-8.21-4.68Z"/>
    <path class="cls-33" d="M40.98,35.41c-.02,3.17-.14,6-.35,8.4,4.13-2.04,6.5-3.57,8.22-4.68-3.75-1.66-4.53-2.01-7.87-3.72Z"/>
    <path class="cls-20" d="M56.18,37.35c-1.53-.96-3.64-1.97-5.68-2.95-.04,3.17-.45,6.03-1.16,8.49,3.63-2.3,5.56-4.25,6.83-5.54Z"/>
    <path class="cls-36" d="M57.52,32.46c-.07,3.18-.69,6.1-1.75,8.66,2.69-2.62,3.63-4.49,4.45-6.14-.39-.96-1.72-1.86-2.7-2.51Z"/>
    <path class="cls-25" d="M15.93,50.84s0,0,0,0c-.03-.02-.07-.04-.1-.06l-.33-.22.32.21c-3.54-2.02-5.52-3.65-6.96-4.84.83,2.63,2.08,4.89,3.66,6.7.7-.54,2.08-1.18,3.41-1.78l.63.42-.08-.06-.54-.36Z"/>
    <path class="cls-23" d="M26.69,51.73c1.85-.78,3.7-1.52,5.55-2.3-3.69-1.7-5.88-3.01-7.64-4.06.47,2.55,1.19,4.7,2.09,6.37Z"/>
    <path class="cls-22" d="M43.29,46.03c-3.44-1.39-5.35-2.32-7.2-3.22.04,2.52.11,4.63.2,6.23,3.3-1.28,5.18-2.16,7-3.01Z"/>
    <path class="cls-24" d="M45.3,42.41c-.4,2.54-1.01,4.68-1.77,6.32,3.7-1.61,5.63-2.81,7.33-3.88q-1.04-.54-5.57-2.44Z"/>
    <path class="cls-31" d="M53.29,40.98c-.79,2.61-1.98,4.85-3.48,6.62,3.17-1.86,4.7-3.31,6.05-4.6-.34-.76-1.63-1.49-2.57-2.02Z"/>
    <path class="cls-30" d="M26.46,59.66c.12-.15.85-.4,1.95-.79-2.97-1.07-4.97-2.1-6.44-2.85,1.26,1.72,2.78,2.97,4.48,3.64Z"/>
    <path class="cls-32" d="M33.83,55.79c1.49-.34,2.85-.77,3.95-1.12-2.54-.83-4.32-1.56-5.75-2.16.51,1.62,1.12,2.74,1.8,3.28Z"/>
    <path class="cls-37" d="M38.75,52.23c2.26-.5,4.21-1.21,5.49-1.68-1.43-.55-2.87-1.03-4.3-1.56-.33,1.61-.74,2.72-1.19,3.24Z"/>
  </g>
  <path d="M81.38,17.97h0c.19.36.36.72.53,1.11.18.38.34.77.5,1.17h0c.16-.41.33-.8.5-1.19s.36-.76.54-1.12h0l5.21-10.25c.09-.18.19-.31.29-.41.1-.1.21-.17.33-.22.12-.05.26-.07.41-.09.15,0,.33,0,.53,0h3.59v20.28h-4.15v-11.67c0-.57.03-1.18.09-1.84h0l-5.38,10.43c-.17.32-.39.57-.67.74-.28.17-.61.25-.97.25h-.64c-.36,0-.68-.08-.97-.25-.28-.17-.51-.42-.68-.74h0l-5.4-10.44c.04.32.06.65.09.97.02.32.02.61.02.88h0v11.67h-4.15V6.96h3.59c.21,0,.39,0,.54,0,.15.01.29.04.41.09.12.05.23.12.32.22.1.1.19.23.29.41h0l5.22,10.29ZM103.59,12.59h0c1.09,0,2.09.17,2.99.51.9.35,1.68.84,2.32,1.48.64.64,1.14,1.42,1.5,2.34.36.91.53,1.94.53,3.08h0c0,1.16-.18,2.19-.53,3.12-.36.92-.86,1.71-1.5,2.35-.64.64-1.42,1.14-2.32,1.49-.9.35-1.9.52-2.99.52h0c-1.1,0-2.11-.17-3.02-.52-.9-.35-1.68-.85-2.34-1.49s-1.16-1.43-1.52-2.35c-.36-.92-.54-1.96-.54-3.12h0c0-1.14.18-2.17.54-3.08.36-.92.86-1.7,1.52-2.34.65-.64,1.43-1.13,2.34-1.48.91-.34,1.91-.51,3.02-.51ZM103.59,24.27h0c1,0,1.73-.35,2.2-1.05.46-.7.7-1.77.7-3.19h0c0-1.43-.23-2.49-.7-3.19-.47-.7-1.2-1.04-2.2-1.04h0c-1.02,0-1.77.35-2.24,1.04-.47.7-.71,1.76-.71,3.19h0c0,1.43.24,2.49.71,3.19.47.7,1.22,1.05,2.24,1.05ZM117.63,27.25h-4.32v-14.43h2.57c.21,0,.39.02.53.05.14.04.27.09.36.17.1.08.17.19.22.32.05.13.09.29.13.47h0l.23,1.35c.53-.82,1.13-1.47,1.79-1.94.65-.47,1.37-.7,2.16-.7h0c.65,0,1.18.16,1.59.47h0l-.56,3.17c-.04.2-.11.33-.22.41-.11.08-.26.12-.45.12h0c-.15,0-.34-.02-.56-.06-.21-.05-.48-.07-.8-.07h0c-1.13,0-2.03.6-2.68,1.81h0v8.86ZM129.13,31.83h-4.32V12.81h2.68c.27,0,.49.06.67.18.18.12.31.3.39.54h0l.32,1.06c.28-.3.58-.58.9-.84s.66-.47,1.03-.65.76-.32,1.18-.43c.42-.1.88-.15,1.38-.15h0c.75,0,1.45.17,2.09.5.64.34,1.2.82,1.66,1.45.46.63.83,1.4,1.09,2.31.26.92.39,1.96.39,3.12h0c0,1.08-.15,2.08-.45,3-.3.92-.73,1.72-1.27,2.4-.54.68-1.19,1.2-1.95,1.59-.76.38-1.6.57-2.51.57h0c-.75,0-1.38-.11-1.9-.32-.51-.22-.97-.51-1.39-.87h0v5.54ZM131.86,15.83h0c-.31,0-.6.03-.86.09-.25.06-.49.15-.7.26-.22.11-.43.26-.61.43-.19.17-.37.37-.56.6h0v6.13c.32.36.68.61,1.06.76.38.14.78.22,1.2.22h0c.4,0,.76-.08,1.1-.24s.63-.41.87-.76c.24-.35.43-.8.57-1.36.14-.56.21-1.23.21-2.03h0c0-.76-.05-1.41-.16-1.93-.11-.52-.27-.94-.47-1.26-.2-.32-.43-.55-.71-.69-.28-.14-.59-.21-.94-.21ZM145.23,27.25h-4.32V6.41h4.32v7.67c.52-.44,1.09-.8,1.69-1.08.61-.27,1.33-.41,2.17-.41h0c.79,0,1.49.14,2.1.41.61.27,1.12.65,1.54,1.14.42.48.73,1.06.95,1.74.21.67.32,1.4.32,2.19h0v9.17h-4.32v-9.17c0-.71-.16-1.26-.49-1.65-.32-.4-.8-.6-1.43-.6h0c-.47,0-.92.1-1.34.31-.42.2-.82.47-1.2.82h0v10.29ZM89.41,42.77h0c0,1.46-.25,2.82-.76,4.06-.51,1.24-1.22,2.31-2.14,3.22-.92.9-2.02,1.61-3.32,2.11-1.29.51-2.73.76-4.31.76h-7.88v-20.28h7.88c1.58,0,3.01.26,4.31.77,1.29.51,2.4,1.21,3.32,2.11.92.9,1.63,1.97,2.14,3.21.51,1.24.76,2.59.76,4.05ZM84.6,42.77h0c0-1-.13-1.91-.39-2.72-.26-.81-.63-1.49-1.12-2.05-.48-.56-1.08-1-1.79-1.3-.71-.3-1.51-.45-2.41-.45h-3.15v13.04h3.15c.9,0,1.7-.15,2.41-.45.71-.3,1.3-.74,1.79-1.3.49-.56.86-1.25,1.12-2.05.26-.81.39-1.72.39-2.73ZM91.81,38.49h4.32v14.43h-4.32v-14.43ZM96.63,34.53h0c0,.35-.07.67-.21.97-.14.3-.33.56-.57.79-.24.23-.52.41-.84.54-.32.13-.66.2-1.02.2h0c-.36,0-.69-.07-.99-.2-.3-.13-.58-.31-.81-.54-.24-.23-.42-.49-.56-.79-.13-.3-.2-.63-.2-.97h0c0-.35.07-.68.2-.98.13-.31.32-.58.56-.81.24-.23.51-.41.81-.54.3-.13.63-.19.99-.19h0c.36,0,.7.06,1.02.19.32.13.6.31.84.54.24.23.43.5.57.81.14.3.21.63.21.98ZM104.71,38.23h0c.61,0,1.19.06,1.73.19.54.12,1.04.29,1.51.51h4.36v1.58c0,.24-.07.43-.2.56-.14.14-.37.25-.7.32h0l-1.05.23c.13.42.19.85.19,1.3h0c0,.72-.15,1.37-.46,1.95-.3.57-.71,1.06-1.24,1.47-.53.4-1.14.71-1.86.93-.72.22-1.48.33-2.3.33h0c-.45,0-.88-.03-1.28-.09h0c-.31.19-.47.4-.47.64h0c0,.24.13.41.39.52.25.11.59.18,1.01.22s.89.07,1.43.09c.54.01,1.09.04,1.65.09s1.1.14,1.64.26c.54.12,1.02.31,1.44.58.42.27.75.63,1.01,1.08.26.45.39,1.02.39,1.72h0c0,.65-.16,1.29-.48,1.91-.31.62-.78,1.17-1.39,1.66-.61.48-1.36.87-2.25,1.16s-1.91.44-3.06.44h0c-1.13,0-2.11-.11-2.93-.32-.82-.21-1.5-.49-2.05-.84-.54-.35-.94-.75-1.2-1.21-.26-.45-.39-.93-.39-1.42h0c0-.64.2-1.18.59-1.62.39-.44.92-.79,1.6-1.04h0c-.32-.21-.59-.48-.78-.82-.2-.34-.29-.76-.29-1.27h0c0-.21.04-.44.12-.67.07-.24.19-.47.35-.69.15-.22.35-.44.6-.64.24-.2.53-.38.87-.54h0c-.75-.4-1.35-.93-1.78-1.59-.43-.66-.65-1.43-.65-2.3h0c0-.73.15-1.38.46-1.96.3-.58.72-1.08,1.26-1.48.53-.4,1.16-.71,1.89-.94.72-.22,1.51-.32,2.35-.32ZM107.91,53.46h0c0-.23-.07-.42-.22-.56-.14-.14-.34-.25-.59-.34-.24-.08-.53-.14-.86-.18-.33-.04-.69-.06-1.07-.09-.38-.02-.78-.03-1.18-.05-.41-.02-.81-.05-1.21-.09h0c-.27.19-.49.39-.66.62-.17.23-.26.48-.26.77h0c0,.21.04.39.13.56.09.17.24.31.46.43.22.12.52.21.9.29.38.07.85.1,1.43.1h0c.62,0,1.13-.04,1.53-.11.4-.07.71-.18.95-.31.24-.13.4-.28.5-.46.09-.18.14-.38.14-.59ZM104.71,44.95h0c.71,0,1.23-.18,1.55-.53.32-.36.48-.83.48-1.39h0c0-.58-.16-1.04-.48-1.38-.32-.34-.84-.5-1.55-.5h0c-.72,0-1.24.17-1.55.5-.32.34-.48.79-.48,1.38h0c0,.28.04.53.12.77.08.23.21.44.37.61.17.17.38.3.63.4.25.1.56.15.91.15ZM114.32,38.49h4.32v14.43h-4.32v-14.43ZM119.13,34.53h0c0,.35-.07.67-.21.97-.14.3-.33.56-.57.79-.24.23-.52.41-.84.54s-.66.2-1.02.2h0c-.36,0-.69-.07-.99-.2-.31-.13-.58-.31-.81-.54-.24-.23-.42-.49-.56-.79-.14-.3-.21-.63-.21-.97h0c0-.35.07-.68.21-.98.13-.31.32-.58.56-.81.23-.23.5-.41.81-.54.3-.13.63-.19.99-.19h0c.36,0,.7.06,1.02.19s.6.31.84.54c.24.23.43.5.57.81.14.3.21.63.21.98ZM127.18,53.15h0c-.69,0-1.29-.1-1.82-.3-.53-.2-.97-.48-1.32-.84-.36-.37-.63-.81-.81-1.33-.19-.52-.28-1.1-.28-1.74h0v-7.47h-1.23c-.22,0-.41-.07-.56-.22-.16-.14-.24-.36-.24-.63h0v-1.69l2.3-.44.85-3.53c.11-.44.42-.67.94-.67h2.26v4.22h3.5v2.96h-3.5v7.17c0,.34.08.61.24.83.17.22.4.32.7.32h0c.16,0,.29-.02.4-.05.1-.03.2-.07.28-.11.08-.05.15-.09.22-.12.07-.03.15-.05.25-.05h0c.13,0,.23.03.31.09.08.06.17.15.25.28h0l1.31,2.05c-.56.42-1.18.73-1.88.94-.7.21-1.42.31-2.16.31ZM145.2,52.92h-1.97c-.41,0-.72-.05-.93-.16-.21-.11-.39-.35-.53-.7h0l-.3-.8c-.36.3-.71.57-1.04.8-.34.23-.68.43-1.04.6-.36.16-.74.28-1.14.36-.4.08-.85.12-1.35.12h0c-.65,0-1.25-.09-1.79-.26-.54-.18-.99-.43-1.37-.76-.38-.34-.67-.75-.87-1.25-.2-.5-.3-1.08-.3-1.73h0c0-.51.13-1.03.39-1.57.26-.54.71-1.03,1.35-1.47.64-.44,1.5-.81,2.59-1.11,1.08-.3,2.45-.47,4.11-.5h0v-.61c0-.85-.18-1.46-.53-1.83-.35-.38-.84-.56-1.49-.56h0c-.51,0-.93.06-1.25.17-.32.11-.61.23-.87.37-.26.14-.51.27-.74.38-.24.11-.53.17-.87.17h0c-.3,0-.55-.07-.76-.22-.21-.14-.38-.32-.5-.54h0l-.78-1.35c.87-.77,1.84-1.35,2.91-1.72,1.06-.38,2.2-.56,3.41-.56h0c.88,0,1.67.14,2.37.42.7.28,1.29.68,1.78,1.19.48.51.86,1.11,1.12,1.8.26.7.39,1.46.39,2.28h0v9.02ZM138.27,50.29h0c.56,0,1.04-.1,1.46-.29.42-.2.84-.51,1.27-.94h0v-2c-.87.04-1.58.11-2.14.22-.56.11-1,.25-1.32.42-.32.17-.55.36-.67.57-.12.22-.19.45-.19.7h0c0,.5.13.84.4,1.04.27.2.66.3,1.18.3ZM148.4,32.08h4.32v20.84h-4.32v-20.84Z"/>
</svg>